<svg xmlns="http://www.w3.org/2000/svg" width="48" height="48" fill="none"><g clip-path="url(#a)"><path fill="url(#b)" d="M24 48a24 24 0 1 0 0-48 24 24 0 0 0 0 48Z"/><path stroke="#E6ECF5" d="M24 48a24 24 0 1 0 0-48 24 24 0 0 0 0 48Z"/><path fill="#fff" fill-rule="evenodd" d="M26.48 26.55V41.4c0 .27-1.16.49-2.48.5-1.26-.01-2.47-.23-2.47-.5V26.55L9.33 14.61c-.2-.2.42-1.12 1.38-2.08s1.9-1.59 2.09-1.39l11.19 10.92 11.18-10.92c.2-.2 1.13.43 2.09 1.39s1.6 1.89 1.43 2.09L26.48 26.55Z" clip-rule="evenodd"/></g><defs><linearGradient id="b" x1="48" x2="0" y1="0" y2="48" gradientUnits="userSpaceOnUse"><stop offset=".33" stop-color="#3D5995"/><stop offset=".86" stop-color="#284278"/></linearGradient><clipPath id="a"><path fill="#fff" d="M0 0h48v48H0z"/></clipPath></defs></svg>
